<svg  xmlns="http://www.w3.org/2000/svg" xmlns:xlink="http://www.w3.org/1999/xlink" width="16px" height="16px"><path fill-rule="evenodd"  fill="rgb(132, 142, 153)" d="M13.500,16.000 L2.500,16.000 C1.100,16.000 -0.000,14.900 -0.000,13.500 L-0.000,8.500 C-0.000,7.100 1.100,6.000 2.500,6.000 L3.500,6.000 L3.500,4.500 C3.500,2.000 5.500,-0.000 8.000,-0.000 C10.500,-0.000 12.500,2.000 12.500,4.500 L12.500,6.000 L13.500,6.000 C14.900,6.000 16.000,7.100 16.000,8.500 L16.000,13.500 C16.000,14.900 14.900,16.000 13.500,16.000 ZM11.500,4.500 C11.500,2.550 9.950,1.000 8.000,1.000 C6.050,1.000 4.500,2.550 4.500,4.500 L4.500,6.000 L11.500,6.000 L11.500,4.500 ZM15.000,8.500 C15.000,7.650 14.350,7.000 13.500,7.000 L2.500,7.000 C1.700,7.000 1.000,7.650 1.000,8.500 L1.000,13.500 C1.000,14.350 1.700,15.000 2.500,15.000 L13.500,15.000 C14.350,15.000 15.000,14.350 15.000,13.500 L15.000,8.500 ZM8.500,11.400 L8.500,13.000 C8.500,13.250 8.250,13.500 8.000,13.500 C7.750,13.500 7.500,13.250 7.500,13.000 L7.500,11.400 C6.900,11.200 6.500,10.650 6.500,10.000 C6.500,9.150 7.150,8.500 8.000,8.500 C8.850,8.500 9.500,9.150 9.500,10.000 C9.500,10.650 9.100,11.200 8.500,11.400 Z"/></svg>