<svg  xmlns="http://www.w3.org/2000/svg" xmlns:xlink="http://www.w3.org/1999/xlink" width="16px" height="16px"><path fill-rule="evenodd"  fill="rgb(132, 142, 153)" d="M8.000,-0.000 C3.582,-0.000 -0.000,3.582 -0.000,8.000 C-0.000,12.418 3.582,16.000 8.000,16.000 C12.418,16.000 16.000,12.418 16.000,8.000 C16.000,3.582 12.418,-0.000 8.000,-0.000 L8.000,-0.000 ZM13.025,13.025 C12.371,13.679 11.612,14.191 10.766,14.548 C9.891,14.920 8.961,15.107 8.000,15.107 C7.039,15.107 6.109,14.920 5.234,14.548 C4.388,14.191 3.627,13.679 2.975,13.025 C2.321,12.371 1.809,11.612 1.452,10.766 C1.080,9.891 0.893,8.961 0.893,8.000 C0.893,7.039 1.080,6.109 1.452,5.234 C1.809,4.387 2.321,3.627 2.975,2.975 C3.629,2.321 4.388,1.809 5.234,1.452 C6.109,1.082 7.041,0.893 8.000,0.893 C8.959,0.893 9.891,1.080 10.766,1.452 C11.612,1.809 12.373,2.321 13.025,2.975 C13.679,3.629 14.191,4.387 14.548,5.234 C14.918,6.109 15.107,7.041 15.107,8.000 C15.107,8.961 14.920,9.891 14.548,10.766 C14.191,11.612 13.679,12.373 13.025,13.025 L13.025,13.025 ZM8.843,8.741 C10.109,8.375 11.036,7.207 11.036,5.823 C11.036,4.146 9.677,2.787 8.000,2.787 C6.323,2.787 4.964,4.146 4.964,5.823 C4.964,7.207 5.891,8.375 7.157,8.739 C5.195,9.057 3.559,10.464 2.779,12.382 C2.971,12.675 3.189,12.952 3.430,13.211 C3.471,13.077 3.518,12.943 3.568,12.811 C3.816,12.170 4.170,11.596 4.618,11.105 C5.062,10.620 5.579,10.239 6.150,9.973 C6.736,9.702 7.359,9.564 8.000,9.564 C8.641,9.564 9.262,9.702 9.850,9.973 C10.423,10.237 10.938,10.618 11.382,11.105 C11.832,11.596 12.186,12.171 12.432,12.811 C12.484,12.943 12.529,13.075 12.570,13.211 C12.811,12.952 13.029,12.675 13.221,12.382 C12.443,10.466 10.805,9.059 8.843,8.741 L8.843,8.741 ZM6.484,7.339 C6.079,6.934 5.857,6.396 5.857,5.823 C5.857,5.250 6.080,4.713 6.484,4.307 C6.889,3.902 7.427,3.680 8.000,3.680 C8.573,3.680 9.111,3.904 9.516,4.307 C9.921,4.713 10.143,5.250 10.143,5.823 C10.143,6.396 9.920,6.934 9.516,7.339 C9.111,7.745 8.573,7.966 8.000,7.966 C7.427,7.966 6.889,7.743 6.484,7.339 L6.484,7.339 Z"/></svg>